solid placeholder
facet normal 0.000000 0.000000 1.000000
 outer loop
  vertex 0.000000 -60.000000 -60.000000
  vertex 700.000000 -60.000000 -60.000000
  vertex 700.000000 60.000000 -60.000000
 endloop
endfacet
facet normal 0.000000 0.000000 1.000000
 outer loop
  vertex 0.000000 -60.000000 -60.000000
  vertex 700.000000 60.000000 -60.000000
  vertex 0.000000 60.000000 -60.000000
 endloop
endfacet
facet normal 0.000000 0.000000 -1.000000
 outer loop
  vertex 0.000000 -60.000000 60.000000
  vertex 700.000000 60.000000 60.000000
  vertex 700.000000 -60.000000 60.000000
 endloop
endfacet
facet normal 0.000000 0.000000 -1.000000
 outer loop
  vertex 0.000000 -60.000000 60.000000
  vertex 0.000000 60.000000 60.000000
  vertex 700.000000 60.000000 60.000000
 endloop
endfacet
facet normal 0.000000 1.000000 0.000000
 outer loop
  vertex 0.000000 -60.000000 -60.000000
  vertex 0.000000 -60.000000 60.000000
  vertex 700.000000 -60.000000 60.000000
 endloop
endfacet
facet normal 0.000000 1.000000 0.000000
 outer loop
  vertex 0.000000 -60.000000 -60.000000
  vertex 700.000000 -60.000000 60.000000
  vertex 700.000000 -60.000000 -60.000000
 endloop
endfacet
facet normal -1.000000 0.000000 0.000000
 outer loop
  vertex 700.000000 -60.000000 -60.000000
  vertex 700.000000 -60.000000 60.000000
  vertex 700.000000 60.000000 60.000000
 endloop
endfacet
facet normal -1.000000 0.000000 0.000000
 outer loop
  vertex 700.000000 -60.000000 -60.000000
  vertex 700.000000 60.000000 60.000000
  vertex 700.000000 60.000000 -60.000000
 endloop
endfacet
facet normal 0.000000 -1.000000 0.000000
 outer loop
  vertex 700.000000 60.000000 -60.000000
  vertex 700.000000 60.000000 60.000000
  vertex 0.000000 60.000000 60.000000
 endloop
endfacet
facet normal 0.000000 -1.000000 0.000000
 outer loop
  vertex 700.000000 60.000000 -60.000000
  vertex 0.000000 60.000000 60.000000
  vertex 0.000000 60.000000 -60.000000
 endloop
endfacet
facet normal 1.000000 0.000000 -0.000000
 outer loop
  vertex 0.000000 60.000000 -60.000000
  vertex 0.000000 60.000000 60.000000
  vertex 0.000000 -60.000000 60.000000
 endloop
endfacet
facet normal 1.000000 0.000000 0.000000
 outer loop
  vertex 0.000000 60.000000 -60.000000
  vertex 0.000000 -60.000000 60.000000
  vertex 0.000000 -60.000000 -60.000000
 endloop
endfacet
facet normal 0.980785 0.195090 -0.000000
 outer loop
  vertex 80.000000 0.000000 -90.000000
  vertex 73.910363 30.614675 -90.000000
  vertex 80.000000 0.000000 90.000000
 endloop
endfacet
facet normal 0.980785 0.195090 0.000000
 outer loop
  vertex 80.000000 0.000000 90.000000
  vertex 73.910363 30.614675 -90.000000
  vertex 73.910363 30.614675 90.000000
 endloop
endfacet
facet normal 0.000000 0.000000 1.000000
 outer loop
  vertex 0.000000 0.000000 -90.000000
  vertex 80.000000 0.000000 -90.000000
  vertex 73.910363 30.614675 -90.000000
 endloop
endfacet
facet normal 0.000000 0.000000 -1.000000
 outer loop
  vertex 0.000000 0.000000 90.000000
  vertex 73.910363 30.614675 90.000000
  vertex 80.000000 0.000000 90.000000
 endloop
endfacet
facet normal 0.831470 0.555570 -0.000000
 outer loop
  vertex 73.910363 30.614675 -90.000000
  vertex 56.568542 56.568542 -90.000000
  vertex 73.910363 30.614675 90.000000
 endloop
endfacet
facet normal 0.831470 0.555570 0.000000
 outer loop
  vertex 73.910363 30.614675 90.000000
  vertex 56.568542 56.568542 -90.000000
  vertex 56.568542 56.568542 90.000000
 endloop
endfacet
facet normal 0.000000 0.000000 1.000000
 outer loop
  vertex 0.000000 0.000000 -90.000000
  vertex 73.910363 30.614675 -90.000000
  vertex 56.568542 56.568542 -90.000000
 endloop
endfacet
facet normal 0.000000 0.000000 -1.000000
 outer loop
  vertex 0.000000 0.000000 90.000000
  vertex 56.568542 56.568542 90.000000
  vertex 73.910363 30.614675 90.000000
 endloop
endfacet
facet normal 0.555570 0.831470 -0.000000
 outer loop
  vertex 56.568542 56.568542 -90.000000
  vertex 30.614675 73.910363 -90.000000
  vertex 56.568542 56.568542 90.000000
 endloop
endfacet
facet normal 0.555570 0.831470 0.000000
 outer loop
  vertex 56.568542 56.568542 90.000000
  vertex 30.614675 73.910363 -90.000000
  vertex 30.614675 73.910363 90.000000
 endloop
endfacet
facet normal 0.000000 0.000000 1.000000
 outer loop
  vertex 0.000000 0.000000 -90.000000
  vertex 56.568542 56.568542 -90.000000
  vertex 30.614675 73.910363 -90.000000
 endloop
endfacet
facet normal 0.000000 0.000000 -1.000000
 outer loop
  vertex 0.000000 0.000000 90.000000
  vertex 30.614675 73.910363 90.000000
  vertex 56.568542 56.568542 90.000000
 endloop
endfacet
facet normal 0.195090 0.980785 -0.000000
 outer loop
  vertex 30.614675 73.910363 -90.000000
  vertex 0.000000 80.000000 -90.000000
  vertex 30.614675 73.910363 90.000000
 endloop
endfacet
facet normal 0.195090 0.980785 0.000000
 outer loop
  vertex 30.614675 73.910363 90.000000
  vertex 0.000000 80.000000 -90.000000
  vertex 0.000000 80.000000 90.000000
 endloop
endfacet
facet normal 0.000000 0.000000 1.000000
 outer loop
  vertex 0.000000 0.000000 -90.000000
  vertex 30.614675 73.910363 -90.000000
  vertex 0.000000 80.000000 -90.000000
 endloop
endfacet
facet normal 0.000000 0.000000 -1.000000
 outer loop
  vertex 0.000000 0.000000 90.000000
  vertex 0.000000 80.000000 90.000000
  vertex 30.614675 73.910363 90.000000
 endloop
endfacet
facet normal -0.195090 0.980785 0.000000
 outer loop
  vertex 0.000000 80.000000 -90.000000
  vertex -30.614675 73.910363 -90.000000
  vertex 0.000000 80.000000 90.000000
 endloop
endfacet
facet normal -0.195090 0.980785 0.000000
 outer loop
  vertex 0.000000 80.000000 90.000000
  vertex -30.614675 73.910363 -90.000000
  vertex -30.614675 73.910363 90.000000
 endloop
endfacet
facet normal 0.000000 -0.000000 1.000000
 outer loop
  vertex 0.000000 0.000000 -90.000000
  vertex 0.000000 80.000000 -90.000000
  vertex -30.614675 73.910363 -90.000000
 endloop
endfacet
facet normal 0.000000 0.000000 -1.000000
 outer loop
  vertex 0.000000 0.000000 90.000000
  vertex -30.614675 73.910363 90.000000
  vertex 0.000000 80.000000 90.000000
 endloop
endfacet
facet normal -0.555570 0.831470 0.000000
 outer loop
  vertex -30.614675 73.910363 -90.000000
  vertex -56.568542 56.568542 -90.000000
  vertex -30.614675 73.910363 90.000000
 endloop
endfacet
facet normal -0.555570 0.831470 0.000000
 outer loop
  vertex -30.614675 73.910363 90.000000
  vertex -56.568542 56.568542 -90.000000
  vertex -56.568542 56.568542 90.000000
 endloop
endfacet
facet normal 0.000000 0.000000 1.000000
 outer loop
  vertex 0.000000 0.000000 -90.000000
  vertex -30.614675 73.910363 -90.000000
  vertex -56.568542 56.568542 -90.000000
 endloop
endfacet
facet normal 0.000000 0.000000 -1.000000
 outer loop
  vertex 0.000000 0.000000 90.000000
  vertex -56.568542 56.568542 90.000000
  vertex -30.614675 73.910363 90.000000
 endloop
endfacet
facet normal -0.831470 0.555570 0.000000
 outer loop
  vertex -56.568542 56.568542 -90.000000
  vertex -73.910363 30.614675 -90.000000
  vertex -56.568542 56.568542 90.000000
 endloop
endfacet
facet normal -0.831470 0.555570 0.000000
 outer loop
  vertex -56.568542 56.568542 90.000000
  vertex -73.910363 30.614675 -90.000000
  vertex -73.910363 30.614675 90.000000
 endloop
endfacet
facet normal 0.000000 0.000000 1.000000
 outer loop
  vertex 0.000000 0.000000 -90.000000
  vertex -56.568542 56.568542 -90.000000
  vertex -73.910363 30.614675 -90.000000
 endloop
endfacet
facet normal 0.000000 0.000000 -1.000000
 outer loop
  vertex 0.000000 0.000000 90.000000
  vertex -73.910363 30.614675 90.000000
  vertex -56.568542 56.568542 90.000000
 endloop
endfacet
facet normal -0.980785 0.195090 0.000000
 outer loop
  vertex -73.910363 30.614675 -90.000000
  vertex -80.000000 0.000000 -90.000000
  vertex -73.910363 30.614675 90.000000
 endloop
endfacet
facet normal -0.980785 0.195090 0.000000
 outer loop
  vertex -73.910363 30.614675 90.000000
  vertex -80.000000 0.000000 -90.000000
  vertex -80.000000 0.000000 90.000000
 endloop
endfacet
facet normal 0.000000 0.000000 1.000000
 outer loop
  vertex 0.000000 0.000000 -90.000000
  vertex -73.910363 30.614675 -90.000000
  vertex -80.000000 0.000000 -90.000000
 endloop
endfacet
facet normal 0.000000 0.000000 -1.000000
 outer loop
  vertex 0.000000 0.000000 90.000000
  vertex -80.000000 0.000000 90.000000
  vertex -73.910363 30.614675 90.000000
 endloop
endfacet
facet normal -0.980785 -0.195090 0.000000
 outer loop
  vertex -80.000000 0.000000 -90.000000
  vertex -73.910363 -30.614675 -90.000000
  vertex -80.000000 0.000000 90.000000
 endloop
endfacet
facet normal -0.980785 -0.195090 0.000000
 outer loop
  vertex -80.000000 0.000000 90.000000
  vertex -73.910363 -30.614675 -90.000000
  vertex -73.910363 -30.614675 90.000000
 endloop
endfacet
facet normal 0.000000 0.000000 1.000000
 outer loop
  vertex 0.000000 0.000000 -90.000000
  vertex -80.000000 0.000000 -90.000000
  vertex -73.910363 -30.614675 -90.000000
 endloop
endfacet
facet normal -0.000000 0.000000 -1.000000
 outer loop
  vertex 0.000000 0.000000 90.000000
  vertex -73.910363 -30.614675 90.000000
  vertex -80.000000 0.000000 90.000000
 endloop
endfacet
facet normal -0.831470 -0.555570 0.000000
 outer loop
  vertex -73.910363 -30.614675 -90.000000
  vertex -56.568542 -56.568542 -90.000000
  vertex -73.910363 -30.614675 90.000000
 endloop
endfacet
facet normal -0.831470 -0.555570 0.000000
 outer loop
  vertex -73.910363 -30.614675 90.000000
  vertex -56.568542 -56.568542 -90.000000
  vertex -56.568542 -56.568542 90.000000
 endloop
endfacet
facet normal 0.000000 0.000000 1.000000
 outer loop
  vertex 0.000000 0.000000 -90.000000
  vertex -73.910363 -30.614675 -90.000000
  vertex -56.568542 -56.568542 -90.000000
 endloop
endfacet
facet normal 0.000000 0.000000 -1.000000
 outer loop
  vertex 0.000000 0.000000 90.000000
  vertex -56.568542 -56.568542 90.000000
  vertex -73.910363 -30.614675 90.000000
 endloop
endfacet
facet normal -0.555570 -0.831470 0.000000
 outer loop
  vertex -56.568542 -56.568542 -90.000000
  vertex -30.614675 -73.910363 -90.000000
  vertex -56.568542 -56.568542 90.000000
 endloop
endfacet
facet normal -0.555570 -0.831470 0.000000
 outer loop
  vertex -56.568542 -56.568542 90.000000
  vertex -30.614675 -73.910363 -90.000000
  vertex -30.614675 -73.910363 90.000000
 endloop
endfacet
facet normal 0.000000 0.000000 1.000000
 outer loop
  vertex 0.000000 0.000000 -90.000000
  vertex -56.568542 -56.568542 -90.000000
  vertex -30.614675 -73.910363 -90.000000
 endloop
endfacet
facet normal 0.000000 0.000000 -1.000000
 outer loop
  vertex 0.000000 0.000000 90.000000
  vertex -30.614675 -73.910363 90.000000
  vertex -56.568542 -56.568542 90.000000
 endloop
endfacet
facet normal -0.195090 -0.980785 0.000000
 outer loop
  vertex -30.614675 -73.910363 -90.000000
  vertex -0.000000 -80.000000 -90.000000
  vertex -30.614675 -73.910363 90.000000
 endloop
endfacet
facet normal -0.195090 -0.980785 0.000000
 outer loop
  vertex -30.614675 -73.910363 90.000000
  vertex -0.000000 -80.000000 -90.000000
  vertex -0.000000 -80.000000 90.000000
 endloop
endfacet
facet normal 0.000000 0.000000 1.000000
 outer loop
  vertex 0.000000 0.000000 -90.000000
  vertex -30.614675 -73.910363 -90.000000
  vertex -0.000000 -80.000000 -90.000000
 endloop
endfacet
facet normal 0.000000 0.000000 -1.000000
 outer loop
  vertex 0.000000 0.000000 90.000000
  vertex -0.000000 -80.000000 90.000000
  vertex -30.614675 -73.910363 90.000000
 endloop
endfacet
facet normal 0.195090 -0.980785 0.000000
 outer loop
  vertex -0.000000 -80.000000 -90.000000
  vertex 30.614675 -73.910363 -90.000000
  vertex -0.000000 -80.000000 90.000000
 endloop
endfacet
facet normal 0.195090 -0.980785 0.000000
 outer loop
  vertex -0.000000 -80.000000 90.000000
  vertex 30.614675 -73.910363 -90.000000
  vertex 30.614675 -73.910363 90.000000
 endloop
endfacet
facet normal 0.000000 0.000000 1.000000
 outer loop
  vertex 0.000000 0.000000 -90.000000
  vertex -0.000000 -80.000000 -90.000000
  vertex 30.614675 -73.910363 -90.000000
 endloop
endfacet
facet normal 0.000000 -0.000000 -1.000000
 outer loop
  vertex 0.000000 0.000000 90.000000
  vertex 30.614675 -73.910363 90.000000
  vertex -0.000000 -80.000000 90.000000
 endloop
endfacet
facet normal 0.555570 -0.831470 0.000000
 outer loop
  vertex 30.614675 -73.910363 -90.000000
  vertex 56.568542 -56.568542 -90.000000
  vertex 30.614675 -73.910363 90.000000
 endloop
endfacet
facet normal 0.555570 -0.831470 0.000000
 outer loop
  vertex 30.614675 -73.910363 90.000000
  vertex 56.568542 -56.568542 -90.000000
  vertex 56.568542 -56.568542 90.000000
 endloop
endfacet
facet normal 0.000000 0.000000 1.000000
 outer loop
  vertex 0.000000 0.000000 -90.000000
  vertex 30.614675 -73.910363 -90.000000
  vertex 56.568542 -56.568542 -90.000000
 endloop
endfacet
facet normal 0.000000 0.000000 -1.000000
 outer loop
  vertex 0.000000 0.000000 90.000000
  vertex 56.568542 -56.568542 90.000000
  vertex 30.614675 -73.910363 90.000000
 endloop
endfacet
facet normal 0.831470 -0.555570 0.000000
 outer loop
  vertex 56.568542 -56.568542 -90.000000
  vertex 73.910363 -30.614675 -90.000000
  vertex 56.568542 -56.568542 90.000000
 endloop
endfacet
facet normal 0.831470 -0.555570 0.000000
 outer loop
  vertex 56.568542 -56.568542 90.000000
  vertex 73.910363 -30.614675 -90.000000
  vertex 73.910363 -30.614675 90.000000
 endloop
endfacet
facet normal 0.000000 0.000000 1.000000
 outer loop
  vertex 0.000000 0.000000 -90.000000
  vertex 56.568542 -56.568542 -90.000000
  vertex 73.910363 -30.614675 -90.000000
 endloop
endfacet
facet normal 0.000000 0.000000 -1.000000
 outer loop
  vertex 0.000000 0.000000 90.000000
  vertex 73.910363 -30.614675 90.000000
  vertex 56.568542 -56.568542 90.000000
 endloop
endfacet
facet normal 0.980785 -0.195090 0.000000
 outer loop
  vertex 73.910363 -30.614675 -90.000000
  vertex 80.000000 0.000000 -90.000000
  vertex 73.910363 -30.614675 90.000000
 endloop
endfacet
facet normal 0.980785 -0.195090 0.000000
 outer loop
  vertex 73.910363 -30.614675 90.000000
  vertex 80.000000 0.000000 -90.000000
  vertex 80.000000 0.000000 90.000000
 endloop
endfacet
facet normal -0.000000 0.000000 1.000000
 outer loop
  vertex 0.000000 0.000000 -90.000000
  vertex 73.910363 -30.614675 -90.000000
  vertex 80.000000 0.000000 -90.000000
 endloop
endfacet
facet normal 0.000000 0.000000 -1.000000
 outer loop
  vertex 0.000000 0.000000 90.000000
  vertex 80.000000 0.000000 90.000000
  vertex 73.910363 -30.614675 90.000000
 endloop
endfacet
endsolid placeholder
